# xmcd
#
# Track frame offsets:
#	150
#	21864
#	30588
#	48999
#	52623
#	68649
#	76573
#	82751
#	91957
#	104471
#	113713
#	135637
#	140502
#	149395
#	156216
#	172024
#	178099
#	195076
#	202925
#	213797
#	221330
#	227713
#	231687
#	244921
#	253504
#
# Disc length: 3594 seconds
#
# Revision: 0
# Processed by: cddbd v1.5.1PL0 Copyright (c) Steve Scherf et al.
# Submitted via: dBpowerAMP V4.0
#
DISCID=470e0819
DTITLE=Jan Pawe³ II i i zespo³y z Nowosadeczcyzny - Zyczymy, zyczymy
DYEAR=1900
DGENRE=Undefined
TTITLE0=Krakowaik Sadecki na powitanie
TTITLE1=Wspomnienia Ojca Swietego - Stary Sacz I
TTITLE2=Na sondecki ziomi
TTITLE3=Wspomnienia Ojca Swietego - Stary Sacz II
TTITLE4=Bez sadecka ziemie
TTITLE5=Wspomnienia Ojca Swietego - Wadowice I
TTITLE6=Zagrajmy, zagrajmy
TTITLE7=Wspomnienia Ojca Swietego - Wadowice II
TTITLE8=Od Snieznice plynie
TTITLE9=Wspomnienia Ojca Swietego - Elk
TTITLE10=Jako jo se zaspiwom
TTITLE11=Wspomnienia Ojca Swietego - Warszawa I
TTITLE12=Spiywomy i gromy
TTITLE13=Wspomnienia Ojca Swietego - Sosnowiec
TTITLE14=Hej, syckiem gory przesed
TTITLE15=Wspomnienia Ojca Swietego - Bydgoszcz
TTITLE16=Hej leci se spiwecka
TTITLE17=Wspomnienia Ojca Swietego - Gliwice
TTITLE18=Lobyrtane
TTITLE19=Wspomnienia Ojca Swietego - Warszawa II
TTITLE20=Polki
TTITLE21=Wspomnienia Ojca Swietego - Torun
TTITLE22=Krakowaiak sadecki na pozegnanie
TTITLE23=Wspomnienia Ojca Swietego - Krakow
TTITLE24=Zyczymy, zyczymy
EXTD=
EXTT0=
EXTT1=
EXTT2=
EXTT3=
EXTT4=
EXTT5=
EXTT6=
EXTT7=
EXTT8=
EXTT9=
EXTT10=
EXTT11=
EXTT12=
EXTT13=
EXTT14=
EXTT15=
EXTT16=
EXTT17=
EXTT18=
EXTT19=
EXTT20=
EXTT21=
EXTT22=
EXTT23=
EXTT24=
PLAYORDER=
